<?xml version="1.0" encoding="utf-8"?>
<!-- Generator: Adobe Illustrator 19.2.1, SVG Export Plug-In . SVG Version: 6.00 Build 0)  -->
<svg version="1.1" id="Laag_1" xmlns="http://www.w3.org/2000/svg" xmlns:xlink="http://www.w3.org/1999/xlink" x="0px" y="0px"
	 viewBox="0 0 217 63" style="enable-background:new 0 0 217 63;" xml:space="preserve">
<style type="text/css">
	.st0{fill:#232321;}
</style>
<g>
	<path class="st0" d="M80.9,21.6v11.2c0,2.6-0.1,5.1-2.1,7.1c-1.7,1.6-4.3,2.2-6.6,2.2c-2.3,0-5-0.6-6.6-2.2c-2-1.9-2.1-4.5-2.1-7.1
		V21.6h5.2v10.5c0,2.6,0.2,5.4,3.5,5.4s3.5-2.8,3.5-5.4V21.6H80.9z"/>
	<path class="st0" d="M96.8,29.3v-7.7h5.2v20h-5.2v-8.2h-7.5v8.2h-5.2v-20h5.2v7.7H96.8z"/>
	<path class="st0" d="M110.5,38.1l-1.4,3.5h-5.5l7.7-20h5.7l7.5,20H119l-1.3-3.5H110.5z M114.2,27.8L114.2,27.8l-2.2,6.4h4.3
		L114.2,27.8z"/>
	<path class="st0" d="M137.1,26.7c-1-0.8-2.2-1.3-3.4-1.3c-1,0-2.2,0.6-2.2,1.7c0,1.2,1.4,1.6,2.3,1.9l1.3,0.4
		c2.8,0.8,4.9,2.2,4.9,5.5c0,2-0.5,4-2.1,5.4c-1.6,1.3-3.7,1.9-5.7,1.9c-2.5,0-5-0.8-7-2.3l2.2-4.2c1.3,1.1,2.8,2.1,4.6,2.1
		c1.2,0,2.5-0.6,2.5-2c0-1.5-2-2-3.2-2.3c-3.3-0.9-5.4-1.8-5.4-5.6c0-4.1,2.9-6.7,6.9-6.7c2,0,4.5,0.6,6.3,1.6L137.1,26.7z"/>
	<path class="st0" d="M153.4,26.7c-1-0.8-2.2-1.3-3.4-1.3c-1,0-2.2,0.6-2.2,1.7c0,1.2,1.4,1.6,2.3,1.9l1.3,0.4
		c2.8,0.8,4.9,2.2,4.9,5.5c0,2-0.5,4-2.1,5.4c-1.6,1.3-3.7,1.9-5.7,1.9c-2.5,0-5-0.8-7-2.3l2.2-4.2c1.3,1.1,2.8,2.1,4.6,2.1
		c1.2,0,2.5-0.6,2.5-2c0-1.5-2-2-3.2-2.3c-3.3-0.9-5.4-1.8-5.4-5.6c0-4.1,2.9-6.7,6.9-6.7c2,0,4.5,0.6,6.3,1.6L153.4,26.7z"/>
	<path class="st0" d="M164,26v3.3h5.9v4.4H164v3.4h6.2v4.4h-11.4v-20h11.4v4.4H164V26z"/>
	<path class="st0" d="M178.6,37.2h6.2v4.4h-11.4v-20h5.2L178.6,37.2L178.6,37.2z"/>
	<path class="st0" d="M194.5,41.6h-5.2V26H185v-4.4h13.8V26h-4.3V41.6z"/>
</g>
<path class="st0" d="M208.8,55.3H52.5V7h156.3V55.3z M56.6,51.2h148.1V11.1H56.6V51.2z"/>
<path class="st0" d="M56.6,55.3H5.4V7h51.2V55.3z M9.5,51.2h43.1V11.1H9.5V51.2z"/>
<polygon class="st0" points="18.2,24.3 30.7,32 18.2,39.7 "/>
<polygon class="st0" points="33.4,24.3 45.9,32 33.4,39.7 "/>
</svg>
